# xmcd
#
# Track frame offsets:
#	150
#	13170
#	25341
#	38220
#	52357
#	65556
#	78992
#	96079
#	108751
#	120884
#	136700
#	148217
#	161997
#	175638
#	190260
#	203197
#	217611
#	228863
#
# Disc length: 3252 seconds
#
# Revision: 0
# Processed by: cddbd v1.5.2PL0 Copyright (c) Steve Scherf et al.
# Submitted via: audiograbber 1.83.01
#
DISCID=f20cb212
DTITLE=Various Artist - Simply America cd 1
DYEAR=1900
DGENRE=Blues
TTITLE0=Muddy Waters - Hoochie Goochie Man
TTITLE1=Robert Johnson - Cross Road Blues
TTITLE2=Big Mama Thornton - Hound Dog
TTITLE3=Howlin' Wolf - Smokestack Lightning
TTITLE4=Elmore James - Dust my Broom
TTITLE5=BB King - Woke up this Morning
TTITLE6=John Lee Hooker - Goin' Mad Blues
TTITLE7=Memphis Minnie - Me and my Chaffeur Blues
TTITLE8=Little Walter - My Babe
TTITLE9=Bessie Smith - Gimme a Pigfoot and a Bottle of Beer
TTITLE10=Blind Willie Mc Tell - Stratesboro Blues
TTITLE11=T-Bone Walker - Call it stormy Monday
TTITLE12=Sonny Boy Williamson - Good Morning little School Girl
TTITLE13=Ruth Brown - 5-10-15 Hours
TTITLE14=Skip James - I'm so Glad
TTITLE15=Lowell Fulson - Reconsider Baby
TTITLE16=Big Bill Broonzy - All by myself
TTITLE17=Blind Willie Johnson - Dark was the Night
EXTD=
EXTT0=
EXTT1=
EXTT2=
EXTT3=
EXTT4=
EXTT5=
EXTT6=
EXTT7=
EXTT8=
EXTT9=
EXTT10=
EXTT11=
EXTT12=
EXTT13=
EXTT14=
EXTT15=
EXTT16=
EXTT17=
PLAYORDER=
